<svg width="12" height="12" viewBox="0 0 12 12" fill="none" xmlns="http://www.w3.org/2000/svg">
<path d="M3.13514 11.6604C3.13514 11.5304 3.11014 11.4654 3.06014 11.4654L2.71514 11.6304C2.71514 11.5604 2.67514 11.5104 2.59514 11.4804L2.47514 11.4654C2.39514 11.4654 2.29514 11.5004 2.17514 11.5704C2.15514 11.5204 2.13014 11.4704 2.10014 11.4204C2.07014 11.3704 2.04514 11.3254 2.02514 11.2854C1.89514 11.0354 1.76514 10.7604 1.63514 10.4604C1.51514 10.1504 1.40014 9.85535 1.29014 9.57535C1.19014 9.29535 1.11014 9.07535 1.05014 8.91535C1.01014 8.78535 0.965137 8.59035 0.915137 8.33035C0.865137 8.07035 0.815137 7.74035 0.765137 7.34035C0.875137 7.41035 0.960137 7.44535 1.02014 7.44535C1.09014 7.44535 1.15514 7.34035 1.21514 7.13035C1.24514 7.17035 1.30014 7.19035 1.38014 7.19035C1.44014 7.19035 1.48514 7.17035 1.51514 7.13035L1.75514 6.77035L2.02514 6.86035H2.04014C2.06014 6.86035 2.08014 6.85035 2.10014 6.83035C2.12014 6.81035 2.15014 6.79035 2.19014 6.77035C2.27014 6.72035 2.33014 6.69535 2.37014 6.69535L2.41514 6.71035C2.66514 6.83035 2.82514 7.05035 2.89514 7.37035C3.07514 8.13035 3.25514 8.51035 3.43514 8.51035C3.61514 8.51035 3.82514 8.32035 4.06514 7.94035C4.18514 7.75035 4.30514 7.53035 4.42514 7.28035C4.55514 7.03035 4.68514 6.75035 4.81514 6.44035C4.83514 6.56035 4.85514 6.62035 4.87514 6.62035C4.92514 6.62035 5.01014 6.49535 5.13014 6.24535C5.26014 5.99535 5.46514 5.65035 5.74514 5.21035C5.90514 4.94035 6.10514 4.63535 6.34514 4.29535C6.59514 3.95535 6.86014 3.60535 7.14014 3.24535C7.42014 2.88535 7.69014 2.54535 7.95014 2.22535C8.22014 1.90535 8.46014 1.63035 8.67014 1.40035C8.88014 1.17035 9.03514 1.02035 9.13514 0.950352C9.51514 0.690351 9.81514 0.440352 10.0351 0.200352C10.0251 0.270351 10.0101 0.335351 9.99014 0.395351C9.98014 0.445351 9.97514 0.480351 9.97514 0.500351C9.97514 0.540351 9.99514 0.560351 10.0351 0.560351L10.4551 0.350351V0.410351C10.4551 0.490351 10.4751 0.530352 10.5151 0.530352C10.5451 0.530352 10.6051 0.485351 10.6951 0.395351C10.7851 0.305351 10.8351 0.240352 10.8451 0.200352L10.8151 0.410351L11.3251 0.110352L11.2051 0.380352C11.3651 0.270352 11.4801 0.215351 11.5501 0.215351C11.5901 0.215351 11.6201 0.240351 11.6401 0.290351C11.6601 0.330351 11.6701 0.370351 11.6701 0.410351C11.6701 0.470351 11.6451 0.540351 11.5951 0.620351C11.5451 0.700351 11.4801 0.795351 11.4001 0.905351C11.3401 0.985351 11.2401 1.10535 11.1001 1.26535C10.9701 1.41535 10.7701 1.64035 10.5001 1.94035C10.2301 2.23035 9.87014 2.63535 9.42014 3.15535C9.30014 3.28535 9.11514 3.51535 8.86514 3.84535C8.61514 4.16535 8.33014 4.54035 8.01014 4.97035C7.70014 5.39035 7.39014 5.81535 7.08014 6.24535C6.77014 6.67535 6.49514 7.06535 6.25514 7.41535C6.01514 7.75535 5.84514 8.01035 5.74514 8.18035L4.81514 9.75535C4.61514 10.0954 4.45014 10.3754 4.32014 10.5954C4.19014 10.8054 4.09014 10.9504 4.02014 11.0304C3.87014 11.2104 3.70514 11.3704 3.52514 11.5104L3.39014 11.4354L3.27014 11.5104L3.13514 11.6604Z" fill="#FF0420"/>
</svg>
