<svg width="52" height="52" viewBox="0 0 52 52" fill="none" xmlns="http://www.w3.org/2000/svg">
<path d="M40.2734 19.1875C40.2734 19.5391 40.2734 19.8203 40.2734 20.1719C40.2734 29.9453 32.8906 41.125 19.3203 41.125C15.1016 41.125 11.2344 39.9297 8 37.8203C8.5625 37.8906 9.125 37.9609 9.75781 37.9609C13.2031 37.9609 16.3672 36.7656 18.8984 34.7969C15.6641 34.7266 12.9219 32.6172 12.0078 29.6641C12.5 29.7344 12.9219 29.8047 13.4141 29.8047C14.0469 29.8047 14.75 29.6641 15.3125 29.5234C11.9375 28.8203 9.40625 25.8672 9.40625 22.2812V22.2109C10.3906 22.7734 11.5859 23.0547 12.7812 23.125C10.7422 21.7891 9.47656 19.5391 9.47656 17.0078C9.47656 15.6016 9.82812 14.3359 10.4609 13.2812C14.1172 17.7109 19.6016 20.6641 25.7188 21.0156C25.5781 20.4531 25.5078 19.8906 25.5078 19.3281C25.5078 15.25 28.8125 11.9453 32.8906 11.9453C35 11.9453 36.8984 12.7891 38.3047 14.2656C39.9219 13.9141 41.5391 13.2812 42.9453 12.4375C42.3828 14.1953 41.2578 15.6016 39.7109 16.5156C41.1875 16.375 42.6641 15.9531 43.9297 15.3906C42.9453 16.8672 41.6797 18.1328 40.2734 19.1875Z" fill="#1DA1F2"/>
</svg>
