<svg width="52" height="52" viewBox="0 0 52 52" fill="none" xmlns="http://www.w3.org/2000/svg">
<path d="M20.1641 36.4844C20.1641 36.625 20.0234 36.6953 19.8125 36.6953C19.6016 36.7656 19.4609 36.625 19.4609 36.4844C19.4609 36.3438 19.6016 36.2031 19.8125 36.2031C20.0234 36.2031 20.1641 36.3438 20.1641 36.4844ZM17.9844 36.1328C17.9844 36.2734 18.125 36.4844 18.3359 36.4844C18.4766 36.5547 18.6875 36.4844 18.7578 36.3438C18.7578 36.2031 18.6875 36.0625 18.4766 35.9922C18.2656 35.9219 18.0547 35.9922 17.9844 36.1328ZM21.1484 36.0625C20.9375 36.0625 20.7969 36.2031 20.7969 36.4141C20.7969 36.5547 21.0078 36.625 21.2188 36.5547C21.4297 36.4844 21.5703 36.4141 21.5 36.2734C21.5 36.1328 21.2891 35.9922 21.1484 36.0625ZM25.7188 9.0625C16.0156 9.0625 8.5625 16.5156 8.5625 26.2188C8.5625 34.0234 13.4141 40.7031 20.4453 43.0938C21.3594 43.2344 21.6406 42.6719 21.6406 42.25C21.6406 41.7578 21.6406 39.3672 21.6406 37.8906C21.6406 37.8906 16.7188 38.9453 15.6641 35.7812C15.6641 35.7812 14.8906 33.7422 13.7656 33.25C13.7656 33.25 12.1484 32.125 13.8359 32.125C13.8359 32.125 15.5938 32.2656 16.5781 33.9531C18.125 36.6953 20.6562 35.9219 21.7109 35.4297C21.8516 34.3047 22.2734 33.5312 22.8359 33.0391C18.8984 32.6172 14.8906 32.0547 14.8906 25.3047C14.8906 23.3359 15.4531 22.4219 16.5781 21.1562C16.3672 20.6641 15.8047 18.8359 16.7891 16.375C18.1953 15.9531 21.6406 18.2734 21.6406 18.2734C23.0469 17.8516 24.5234 17.7109 26 17.7109C27.5469 17.7109 29.0234 17.8516 30.4297 18.2734C30.4297 18.2734 33.8047 15.8828 35.2812 16.375C36.2656 18.8359 35.6328 20.6641 35.4922 21.1562C36.6172 22.4219 37.3203 23.3359 37.3203 25.3047C37.3203 32.0547 33.1719 32.6172 29.2344 33.0391C29.8672 33.6016 30.4297 34.6562 30.4297 36.3438C30.4297 38.6641 30.3594 41.6172 30.3594 42.1797C30.3594 42.6719 30.7109 43.2344 31.625 43.0234C38.6562 40.7031 43.4375 34.0234 43.4375 26.2188C43.4375 16.5156 35.4922 9.0625 25.7188 9.0625ZM15.3828 33.3203C15.2422 33.3906 15.3125 33.6016 15.3828 33.7422C15.5234 33.8125 15.6641 33.8828 15.8047 33.8125C15.875 33.7422 15.875 33.5312 15.7344 33.3906C15.5938 33.3203 15.4531 33.25 15.3828 33.3203ZM14.6094 32.7578C14.5391 32.8984 14.6094 32.9688 14.75 33.0391C14.8906 33.1094 15.0312 33.1094 15.1016 32.9688C15.1016 32.8984 15.0312 32.8281 14.8906 32.7578C14.75 32.6875 14.6797 32.6875 14.6094 32.7578ZM16.8594 35.2891C16.7891 35.3594 16.7891 35.5703 17 35.7109C17.1406 35.8516 17.3516 35.9219 17.4219 35.7812C17.4922 35.7109 17.4922 35.5 17.3516 35.3594C17.2109 35.2188 17 35.1484 16.8594 35.2891ZM16.0859 34.2344C15.9453 34.3047 15.9453 34.5156 16.0859 34.6562C16.2266 34.7969 16.3672 34.8672 16.5078 34.7969C16.5781 34.7266 16.5781 34.5156 16.5078 34.375C16.3672 34.2344 16.2266 34.1641 16.0859 34.2344Z" fill="#121212"/>
</svg>
