<svg width="52" height="52" viewBox="0 0 52 52" fill="none" xmlns="http://www.w3.org/2000/svg">
<path d="M40.3438 13.4219C40.3438 13.4219 40.3438 13.4219 40.2734 13.4219C37.6016 12.1562 34.7891 11.3125 31.9062 10.8203C31.8359 10.75 31.7656 10.8203 31.7656 10.8203C31.3438 11.5234 30.9922 12.2969 30.7109 13C27.5469 12.5078 24.3828 12.5078 21.2188 13C20.9375 12.2969 20.5859 11.5234 20.1641 10.8203C20.1641 10.8203 20.0938 10.75 20.0234 10.8203C17.1406 11.3125 14.3281 12.1562 11.6562 13.4219C11.5859 13.4219 11.5859 13.4219 11.5859 13.4219C6.24219 21.4375 4.76562 29.2422 5.46875 36.9766C5.46875 36.9766 5.46875 37.0469 5.53906 37.0469C8.63281 39.3672 12.1484 41.125 15.875 42.25C15.875 42.3203 15.9453 42.25 16.0156 42.25C16.7891 41.125 17.4922 40 18.125 38.8047C18.125 38.7344 18.125 38.6641 18.0547 38.5938C16.9297 38.1719 15.8047 37.6797 14.8203 37.0469C14.75 37.0469 14.6797 36.9062 14.8203 36.8359C15.0312 36.6953 15.2422 36.5547 15.4531 36.3438C15.4531 36.3438 15.5234 36.3438 15.5938 36.3438C22.3438 39.4375 29.6562 39.4375 36.3359 36.3438C36.4062 36.3438 36.4062 36.3438 36.4766 36.3438C36.6875 36.5547 36.8984 36.6953 37.1094 36.8359C37.1797 36.9062 37.1797 37.0469 37.1094 37.0469C36.0547 37.6797 35 38.1719 33.875 38.5938C33.8047 38.6641 33.8047 38.7344 33.8047 38.8047C34.4375 40 35.1406 41.125 35.9141 42.25C35.9844 42.25 35.9844 42.3203 36.0547 42.25C39.7812 41.125 43.2969 39.3672 46.3906 37.0469C46.4609 37.0469 46.4609 36.9766 46.4609 36.9766C47.3047 28.0469 44.9844 20.3125 40.3438 13.4219ZM19.1094 32.2656C17.0703 32.2656 15.3828 30.3672 15.3828 28.1172C15.3828 25.7969 17.0703 23.9688 19.1094 23.9688C21.2188 23.9688 22.8359 25.7969 22.8359 28.1172C22.8359 30.3672 21.1484 32.2656 19.1094 32.2656ZM32.8203 32.2656C30.7812 32.2656 29.1641 30.3672 29.1641 28.1172C29.1641 25.7969 30.7812 23.9688 32.8203 23.9688C34.9297 23.9688 36.6172 25.7969 36.5469 28.1172C36.5469 30.3672 34.9297 32.2656 32.8203 32.2656Z" fill="#5865F2"/>
</svg>
