<svg width="52" height="52" viewBox="0 0 52 52" fill="none" xmlns="http://www.w3.org/2000/svg">
<path d="M42.875 42.25H35.6328C39.2891 39.8594 41.75 35.7109 41.75 31C41.75 23.6172 35.6328 17.5 28.25 17.5V13C28.25 11.8047 27.1953 10.75 26 10.75V9.625C26 9.0625 25.4375 8.5 24.875 8.5H20.375C19.7422 8.5 19.25 9.0625 19.25 9.625V10.75C17.9844 10.75 17 11.8047 17 13V28.75C17 30.0156 17.9844 31 19.25 31H26C27.1953 31 28.25 30.0156 28.25 28.75V19.75C34.4375 19.75 39.5 24.8125 39.5 31C39.5 37.2578 34.4375 42.25 28.25 42.25H9.125C8.49219 42.25 8 42.8125 8 43.375C8 44.0078 8.49219 44.5 9.125 44.5H42.875C43.4375 44.5 44 44.0078 44 43.375C44 42.8125 43.4375 42.25 42.875 42.25ZM26 28.75H19.25V13C20.4453 13 21.5 12.0156 21.5 10.75H23.75C23.75 12.0156 24.7344 13 26 13V28.75ZM24.875 35.5C25.4375 35.5 26 35.0078 26 34.375C26 33.8125 25.4375 33.25 24.875 33.25H20.375C19.7422 33.25 19.25 33.8125 19.25 34.375C19.25 35.0078 19.7422 35.5 20.375 35.5H24.875ZM15.875 40H29.375C29.9375 40 30.5 39.5078 30.5 38.875C30.5 38.3125 29.9375 37.75 29.375 37.75H15.875C15.2422 37.75 14.75 38.3125 14.75 38.875C14.75 39.5078 15.2422 40 15.875 40Z" fill="#323A43"/>
</svg>
