<svg width="52" height="52" viewBox="0 0 52 52" fill="none" xmlns="http://www.w3.org/2000/svg">
<path d="M44 8.5H41.75C40.4844 8.5 39.5 9.55469 39.5 10.75V42.25C39.5 43.5156 40.4844 44.5 41.75 44.5H44C45.1953 44.5 46.25 43.5156 46.25 42.25V10.75C46.25 9.55469 45.1953 8.5 44 8.5ZM44 42.25H41.75V10.75H44V42.25ZM32.75 17.5H30.5C29.2344 17.5 28.25 18.5547 28.25 19.75V42.25C28.25 43.5156 29.2344 44.5 30.5 44.5H32.75C33.9453 44.5 35 43.5156 35 42.25V19.75C35 18.5547 33.9453 17.5 32.75 17.5ZM32.75 42.25H30.5V19.75H32.75V42.25ZM21.5 26.5H19.25C17.9844 26.5 17 27.5547 17 28.75V42.25C17 43.5156 17.9844 44.5 19.25 44.5H21.5C22.6953 44.5 23.75 43.5156 23.75 42.25V28.75C23.75 27.5547 22.6953 26.5 21.5 26.5ZM21.5 42.25H19.25V28.75H21.5V42.25ZM10.25 35.5H8C6.73438 35.5 5.75 36.5547 5.75 37.75V42.25C5.75 43.5156 6.73438 44.5 8 44.5H10.25C11.4453 44.5 12.5 43.5156 12.5 42.25V37.75C12.5 36.5547 11.4453 35.5 10.25 35.5ZM10.25 42.25H8V37.75H10.25V42.25Z" fill="#323A43"/>
</svg>
