<svg width="52" height="52" viewBox="0 0 52 52" fill="none" xmlns="http://www.w3.org/2000/svg">
<path d="M32.75 33.25H19.25C14.2578 33.25 10.25 37.3281 10.25 42.25C10.25 43.5156 11.2344 44.5 12.5 44.5H39.5C40.6953 44.5 41.75 43.5156 41.75 42.25C41.75 37.3281 37.6719 33.25 32.75 33.25ZM23.1875 42.25L26 39.4375L28.7422 42.25H23.1875ZM31.8359 42.25L26.7734 36.9766C26.3516 36.5547 25.5781 36.5547 25.1562 36.9766L20.0938 42.25H12.5C12.5 38.5938 15.5234 35.5 19.25 35.5H32.75C36.4062 35.5 39.5 38.5938 39.5 42.25H31.8359ZM16.5078 29.1719L24.8047 31H27.125L35.4219 29.1719C36.5469 28.9609 37.25 27.9766 37.1797 26.8516L36.6875 18.625C36.4062 13 31.6953 8.5 26 8.5C22.2031 8.5 18.8984 10.4688 17 13.4219V10.75C17.5625 10.75 18.125 10.2578 18.125 9.625C18.125 9.0625 17.5625 8.5 17 8.5H15.875C15.2422 8.5 14.75 9.0625 14.75 9.625V27.0625C14.75 28.1172 15.4531 28.9609 16.5078 29.1719ZM34.9297 26.9922L30.0781 28.1172C30.7109 24.8125 33.1719 23.0547 34.6484 22.2109L34.9297 26.9922ZM34.5078 19.8203C32.0469 20.875 28.25 23.6875 27.7578 28.6094L27.125 28.75V19.75H34.5078V19.8203ZM26 10.75C30.0781 10.75 33.5234 13.6328 34.2969 17.5H17.6328C18.4062 13.7031 21.8516 10.75 26 10.75ZM17.4219 19.75H24.875V28.75L24.1719 28.6094C23.6797 23.6875 19.8828 20.875 17.4219 19.8203V19.75ZM17.2812 22.2109C18.7578 23.0547 21.2188 24.8125 21.8516 28.0469L17 26.9922L17.2812 22.2109Z" fill="#323A43"/>
</svg>
