<svg width="52" height="52" viewBox="0 0 52 52" fill="none" xmlns="http://www.w3.org/2000/svg">
<g clip-path="url(#clip0_818_5207)">
<path d="M11.9827 21.5001C11.9827 13.7573 18.2595 7.48047 26.0024 7.48047C33.7452 7.48047 40.022 13.7573 40.022 21.5001V42.3377C40.022 43.5409 39.0466 44.5163 37.8435 44.5163H14.1612C12.958 44.5163 11.9827 43.5409 11.9827 42.3377V21.5001Z" fill="url(#paint0_linear_818_5207)"/>
<path fill-rule="evenodd" clip-rule="evenodd" d="M39.0068 43.5823V21.6498C39.0068 14.299 33.1846 8.33999 26.0025 8.33999C18.8205 8.33999 12.9984 14.299 12.9984 21.6498V43.5823C12.9984 43.6236 13.0311 43.6571 13.0714 43.6571H38.9337C38.974 43.6571 39.0068 43.6236 39.0068 43.5823ZM26.0025 6.54541C17.8522 6.54541 11.245 13.3079 11.245 21.6498V43.5823C11.245 44.6147 12.0627 45.4517 13.0714 45.4517H38.9337C39.9424 45.4517 40.7601 44.6147 40.7601 43.5823V21.6498C40.7601 13.3079 34.1529 6.54541 26.0025 6.54541Z" fill="#007AFF"/>
</g>
<defs>
<linearGradient id="paint0_linear_818_5207" x1="15.5917" y1="9.61584" x2="40.916" y2="48.8999" gradientUnits="userSpaceOnUse">
<stop offset="0.208333" stop-color="#007AFF" stop-opacity="0"/>
<stop offset="0.713542" stop-color="#007AFF"/>
</linearGradient>
<clipPath id="clip0_818_5207">
<rect width="29.5151" height="39" fill="white" transform="translate(11.245 6.5)"/>
</clipPath>
</defs>
</svg>
