<svg width="52" height="52" viewBox="0 0 52 52" fill="none" xmlns="http://www.w3.org/2000/svg">
<path d="M26 8.5C16.0156 8.5 8 16.5859 8 26.5C8 36.4844 16.0156 44.5 26 44.5C35.9141 44.5 44 36.4844 44 26.5C44 16.5859 35.9141 8.5 26 8.5ZM26 42.25C17.2812 42.25 10.25 35.2188 10.25 26.5C10.25 17.8516 17.2812 10.75 26 10.75C34.6484 10.75 41.75 17.8516 41.75 26.5C41.75 35.2188 34.6484 42.25 26 42.25ZM24.875 32.6875C23.8906 32.6875 23.1875 33.4609 23.1875 34.375C23.1875 35.3594 23.8906 36.0625 24.875 36.0625C25.7891 36.0625 26.5625 35.3594 26.5625 34.375C26.5625 33.4609 25.7891 32.6875 24.875 32.6875ZM28.0391 17.5H23.8906C21.2891 17.5 19.25 19.6094 19.25 22.2109V22.8438C19.25 23.4766 19.7422 23.9688 20.375 23.9688C20.9375 23.9688 21.5 23.4766 21.5 22.8438V22.2109C21.5 20.875 22.5547 19.75 23.8906 19.75H28.0391C29.375 19.75 30.5 20.875 30.5 22.2109C30.5 23.0547 30.0078 23.8984 29.2344 24.3203L25.0156 26.4297C24.2422 26.8516 23.75 27.6953 23.75 28.6094V29.875C23.75 30.5078 24.2422 31 24.875 31C25.4375 31 26 30.5078 26 29.875V28.6094C26 28.5391 26 28.4688 26.0703 28.3984L30.2891 26.2891C31.7656 25.4453 32.75 23.8984 32.75 22.2109C32.75 19.6094 30.6406 17.5 28.0391 17.5Z" fill="#323A43"/>
</svg>
