<svg width="52" height="52" viewBox="0 0 52 52" fill="none" xmlns="http://www.w3.org/2000/svg">
<path d="M26 8.5C26.5625 8.5 27.125 9.0625 27.125 9.625V10.8203C33.2422 11.3125 38.2344 16.0234 39.2891 22H40.625C41.1875 22 41.75 22.5625 41.75 23.125C41.75 23.7578 41.1875 24.25 40.625 24.25H11.375C10.7422 24.25 10.25 23.7578 10.25 23.125C10.25 22.5625 10.7422 22 11.375 22H12.6406C13.6953 16.0234 18.6875 11.3125 24.875 10.8203V9.625C24.875 9.0625 25.3672 8.5 26 8.5ZM14.9609 22H36.9688C35.9141 16.8672 31.4141 13 26 13C20.5156 13 16.0156 16.8672 14.9609 22ZM12.5 33.25V26.5H14.75V33.25H20.375V26.5H22.625V33.25H29.375V26.5H31.625V33.25H37.25V26.5H39.5V33.25C40.0625 33.25 40.625 33.8125 40.625 34.375C40.625 35.0078 40.0625 35.5 39.5 35.5H12.5C11.8672 35.5 11.375 35.0078 11.375 34.375C11.375 33.8125 11.8672 33.25 12.5 33.25ZM9.6875 38.875C9.6875 38.3125 10.1797 37.75 10.8125 37.75H41.1875C41.75 37.75 42.3125 38.3125 42.3125 38.875C42.3125 39.5078 41.75 40 41.1875 40H10.8125C10.1797 40 9.6875 39.5078 9.6875 38.875ZM8 43.375C8 42.8125 8.49219 42.25 9.125 42.25H42.875C43.4375 42.25 44 42.8125 44 43.375C44 44.0078 43.4375 44.5 42.875 44.5H9.125C8.49219 44.5 8 44.0078 8 43.375Z" fill="#323A43"/>
</svg>
