<svg width="52" height="52" viewBox="0 0 52 52" fill="none" xmlns="http://www.w3.org/2000/svg">
<path d="M39.4297 8.5H12.4297C9.89844 8.5 7.92969 10.5391 7.92969 13V33.1797C7.92969 35.6406 9.89844 37.6094 12.4297 37.6094H19.1797V43.4453C19.1797 44.1484 19.9531 44.5 20.5156 44.1484L29.3047 37.5391H39.4297C41.8906 37.5391 43.9297 35.5 43.9297 33.1094V13C43.9297 10.5391 41.9609 8.5 39.4297 8.5ZM41.75 33.25C41.75 34.5156 40.6953 35.5 39.5 35.5H29.3047C28.8125 35.5 28.3906 35.7109 27.9688 35.9922L21.5 40.8438V36.625C21.5 36.0625 20.9375 35.5 20.375 35.5H12.5C11.2344 35.5 10.25 34.5156 10.25 33.25V13C10.25 11.8047 11.2344 10.75 12.5 10.75H39.5C40.6953 10.75 41.75 11.8047 41.75 13V33.25ZM27.125 25.375H18.125C17.4922 25.375 17 25.9375 17 26.5C16.9297 27.1328 17.4922 27.625 18.125 27.625H27.125C27.6875 27.625 28.1797 27.1328 28.1797 26.5C28.1797 25.9375 27.6875 25.375 27.125 25.375ZM33.875 18.625H18.125C17.4922 18.625 17 19.1875 17 19.75C16.9297 20.3828 17.4922 20.875 18.125 20.875H33.875C34.4375 20.875 34.9297 20.3828 34.9297 19.75C34.9297 19.1875 34.4375 18.625 33.875 18.625Z" fill="#323A43"/>
</svg>
