<svg width="52" height="52" viewBox="0 0 52 52" fill="none" xmlns="http://www.w3.org/2000/svg">
<path d="M37.25 8.5H14.75C12.2188 8.5 10.25 10.5391 10.25 13V35.5C10.25 37.1875 11.0938 38.6641 12.5 39.4375V42.25C12.5 43.5156 13.4844 44.5 14.75 44.5H37.25C38.4453 44.5 39.5 43.5156 39.5 42.25V39.4375C40.8359 38.5938 41.75 37.1875 41.75 35.5V13C41.75 10.5391 39.7109 8.5 37.25 8.5ZM37.25 42.25H14.75V40H37.25V42.25ZM39.5 35.5C39.5 36.7656 38.4453 37.75 37.25 37.75H14.75C13.4844 37.75 12.5 36.7656 12.5 35.5V13C12.5 11.8047 13.4844 10.75 14.75 10.75H37.25C38.4453 10.75 39.5 11.8047 39.5 13V35.5ZM32.6797 13H19.1797C16.6484 13 14.6797 15.0391 14.6797 17.5L14.75 22C14.75 24.5312 16.7188 26.5 19.1797 26.5H32.6797C35.2109 26.5 37.25 24.5312 37.25 22V17.5C37.1797 15.0391 35.2109 13 32.6797 13ZM35 22C35 23.2656 33.9453 24.25 32.75 24.25H19.25C17.9844 24.25 17 23.2656 17 22V17.5C17 16.3047 17.9844 15.25 19.25 15.25H32.75C33.9453 15.25 35 16.3047 35 17.5V22ZM17 30.4375C16.0156 30.4375 15.3125 31.2109 15.3125 32.125C15.3125 33.1094 16.0156 33.8125 17 33.8125C17.9141 33.8125 18.6875 33.1094 18.6875 32.125C18.6875 31.2109 17.9141 30.4375 17 30.4375ZM36.125 31H27.125C26.4922 31 26 31.5625 26 32.125C26 32.7578 26.4922 33.25 27.125 33.25H36.125C36.6875 33.25 37.25 32.7578 37.25 32.125C37.25 31.5625 36.6875 31 36.125 31Z" fill="#323A43"/>
</svg>
