<svg width="52" height="52" viewBox="0 0 52 52" fill="none" xmlns="http://www.w3.org/2000/svg">
<path d="M25.9297 31C30.0078 31 33.2422 27.7656 33.2422 23.6875C33.2422 19.6797 29.9375 16.375 25.9297 16.375C21.9219 16.375 18.6875 19.6797 18.6875 23.6875C18.6172 27.7656 21.9219 31 25.9297 31ZM25.9297 18.625C28.7422 18.625 30.9922 20.9453 30.9922 23.6875C30.9922 26.5 28.7422 28.75 25.9297 28.75C23.1875 28.75 20.8672 26.5 20.8672 23.6875C20.8672 20.9453 23.1875 18.625 25.9297 18.625ZM29.4453 33.25H22.4844C16.9297 33.25 12.5 37.4688 12.5 42.6719C12.5 43.7266 13.3438 44.5 14.4688 44.5H37.4609C38.5859 44.5 39.5 43.7266 39.5 42.6719C39.5 37.4688 35 33.25 29.4453 33.25ZM14.75 42.25C14.9609 38.5234 18.3359 35.5 22.4141 35.5H29.4453C33.5938 35.5 36.9688 38.5234 37.1797 42.25H14.75ZM39.5 19.75C42.5938 19.75 45.125 17.2891 45.125 14.125C45.125 11.0312 42.5938 8.5 39.5 8.5C36.3359 8.5 33.875 11.0312 33.875 14.125C33.875 17.2891 36.3359 19.75 39.5 19.75ZM39.5 10.75C41.3281 10.75 42.875 12.2969 42.875 14.125C42.875 16.0234 41.3281 17.5 39.5 17.5C37.6016 17.5 36.125 16.0234 36.125 14.125C36.125 12.2969 37.6016 10.75 39.5 10.75ZM12.5 19.75C15.5938 19.75 18.125 17.2891 18.125 14.125C18.125 11.0312 15.5938 8.5 12.5 8.5C9.33594 8.5 6.875 11.0312 6.875 14.125C6.875 17.2891 9.33594 19.75 12.5 19.75ZM12.5 10.75C14.3281 10.75 15.875 12.2969 15.875 14.125C15.875 16.0234 14.3281 17.5 12.5 17.5C10.6016 17.5 9.125 16.0234 9.125 14.125C9.125 12.2969 10.6016 10.75 12.5 10.75ZM42.9453 22H38.375C37.5312 22 36.7578 22.2109 36.0547 22.5625C35.4922 22.8438 35.2812 23.4766 35.4922 24.0391C35.7734 24.6016 36.4766 24.8828 37.0391 24.6016C37.4609 24.3906 37.8828 24.25 38.375 24.25H42.9453C44.7031 24.25 46.25 25.8672 46.25 27.8359V28.75C46.25 29.3828 46.7422 29.875 47.375 29.875C47.9375 29.875 48.5 29.3828 48.5 28.75V27.8359C48.5 24.6719 45.9688 22 42.9453 22ZM14.8906 24.6016C15.4531 24.8828 16.1562 24.6016 16.4375 24.0391C16.6484 23.4766 16.4375 22.8438 15.875 22.5625C15.1719 22.2109 14.3984 22 13.625 22H8.98438C5.96094 22 3.5 24.6719 3.5 27.8359V28.75C3.5 29.3828 3.99219 29.875 4.625 29.875C5.1875 29.875 5.75 29.3828 5.75 28.75V27.8359C5.75 25.8672 7.22656 24.25 8.98438 24.25H13.625C14.0469 24.25 14.4688 24.3906 14.8906 24.6016Z" fill="#323A43"/>
</svg>
