<svg width="13" height="13" viewBox="0 0 13 13" fill="none" xmlns="http://www.w3.org/2000/svg">
<path d="M7.07031 2.51562L8.24219 3.00781L8.71094 4.17969C8.75781 4.22656 8.80469 4.27344 8.85156 4.27344C8.92188 4.27344 8.96875 4.22656 8.99219 4.17969L9.48438 3.00781L10.6562 2.51562C10.7031 2.49219 10.7266 2.44531 10.7266 2.375C10.7266 2.32812 10.7031 2.28125 10.6562 2.23438L9.48438 1.76562L8.99219 0.59375C8.96875 0.546875 8.92188 0.5 8.875 0.5C8.80469 0.5 8.75781 0.546875 8.73438 0.59375L8.24219 1.76562L7.07031 2.25781C7.02344 2.28125 7 2.32812 7 2.39844C7 2.44531 7.02344 2.49219 7.07031 2.51562ZM12.9297 5.65625L11.9922 5.25781L11.5938 4.34375C11.5703 4.29688 11.5469 4.27344 11.5 4.27344C11.4531 4.27344 11.4062 4.29688 11.3828 4.34375L10.9844 5.25781L10.0703 5.65625C10.0234 5.67969 9.97656 5.72656 9.97656 5.77344C9.97656 5.82031 10.0234 5.84375 10.0703 5.86719L10.9844 6.26562L11.3828 7.20312C11.4062 7.22656 11.4297 7.27344 11.4766 7.27344C11.5234 7.27344 11.5703 7.22656 11.5938 7.20312L11.9922 6.26562L12.9062 5.86719C12.9531 5.84375 13 5.79688 13 5.75C13 5.70312 12.9531 5.67969 12.9297 5.65625ZM9.53125 6.78125L7.07031 6.40625L5.96875 4.17969C5.875 3.99219 5.6875 3.875 5.47656 3.875C5.28906 3.875 5.10156 3.99219 5.00781 4.17969L3.90625 6.40625L1.44531 6.78125C1 6.82812 0.835938 7.39062 1.16406 7.69531L2.92188 9.42969L2.52344 11.8906C2.45312 12.2188 2.73438 12.5 3.03906 12.5C3.13281 12.5 3.20312 12.5 3.29688 12.4531L5.5 11.2812L7.67969 12.4531C7.86719 12.5469 8.07812 12.5234 8.24219 12.4062C8.42969 12.2891 8.5 12.0781 8.47656 11.8906L8.05469 9.42969L9.83594 7.69531C10.1406 7.39062 9.97656 6.82812 9.53125 6.78125ZM6.83594 9.03125L7.16406 10.9062L5.5 10.0156L3.8125 10.9062L4.14062 9.03125L2.78125 7.71875L4.65625 7.4375L5.5 5.75L6.32031 7.4375L8.19531 7.71875L6.83594 9.03125Z" fill="#FF0420"/>
</svg>
