<svg width="52" height="52" viewBox="0 0 52 52" fill="none" xmlns="http://www.w3.org/2000/svg">
<g clip-path="url(#clip0_901_3572)">
<path d="M24.3125 26.5C24.3125 25.5859 25.0156 24.8125 26 24.8125C26.9141 24.8125 27.6875 25.5859 27.6875 26.5C27.6875 27.4844 26.9141 28.1875 26 28.1875C25.0156 28.1875 24.3125 27.4844 24.3125 26.5ZM32.4688 17.1484C34.2266 16.5859 35.9141 18.2734 35.3516 20.0312L31.9062 30.2969C31.5547 31.3516 30.7812 32.125 29.7266 32.4766L19.4609 35.9219C17.7031 36.4844 16.0156 34.7969 16.5781 33.0391L20.0234 22.7734C20.375 21.7188 21.1484 20.9453 22.2031 20.5938L32.4688 17.1484ZM33.1719 19.3281L22.9062 22.7734C22.5547 22.8438 22.2734 23.125 22.2031 23.4766L18.7578 33.7422L29.0234 30.2969C29.375 30.2266 29.6562 29.9453 29.7266 29.5938L33.1719 19.3281ZM8 26.5C8 16.5859 16.0156 8.5 26 8.5C35.9141 8.5 44 16.5859 44 26.5C44 36.4844 35.9141 44.5 26 44.5C16.0156 44.5 8 36.4844 8 26.5ZM26 42.25C34.6484 42.25 41.75 35.2188 41.75 26.5C41.75 17.8516 34.6484 10.75 26 10.75C17.2812 10.75 10.25 17.8516 10.25 26.5C10.25 35.2188 17.2812 42.25 26 42.25Z" fill="#323A43"/>
</g>
<defs>
<clipPath id="clip0_901_3572">
<rect width="52" height="52" fill="white"/>
</clipPath>
</defs>
</svg>
