<svg width="52" height="52" viewBox="0 0 52 52" fill="none" xmlns="http://www.w3.org/2000/svg">
<g clip-path="url(#clip0_1115_5743)">
<path d="M23.75 17.5H28.25C29.4453 17.5 30.5 16.5156 30.5 15.25V10.75C30.5 9.55469 29.4453 8.5 28.25 8.5H23.75C22.4844 8.5 21.5 9.55469 21.5 10.75V15.25C21.5 16.5156 22.4844 17.5 23.75 17.5ZM23.75 10.75H28.25V15.25H23.75V10.75ZM26 31C28.4609 31 30.5 29.0312 30.5 26.5C30.5 24.0391 28.4609 22 26 22C23.4688 22 21.5 24.0391 21.5 26.5C21.5 29.0312 23.4688 31 26 31ZM26 24.25C27.1953 24.25 28.25 25.3047 28.25 26.5C28.25 27.7656 27.1953 28.75 26 28.75C24.7344 28.75 23.75 27.7656 23.75 26.5C23.75 25.3047 24.7344 24.25 26 24.25ZM41.75 13H33.875C33.2422 13 32.75 13.5625 32.75 14.125C32.75 14.6875 33.2422 15.25 33.8047 15.25H41.75C42.9453 15.25 44 16.3047 44 17.5V40C44 41.2656 42.9453 42.25 41.75 42.25H10.25C8.98438 42.25 8 41.2656 8 40V17.5C8 16.3047 8.98438 15.25 10.25 15.25H18.125C18.6875 15.25 19.25 14.7578 19.25 14.125C19.25 13.5625 18.6875 13 18.125 13H10.25C7.71875 13 5.75 15.0391 5.75 17.5V40C5.75 42.5312 7.71875 44.5 10.25 44.5H41.75C44.2109 44.5 46.25 42.5312 46.25 40V17.5C46.25 15.0391 44.2109 13 41.75 13ZM19.25 40C19.8125 40 20.375 39.5078 20.375 38.875C20.375 37.0469 21.8516 35.5 23.75 35.5H28.25C30.0781 35.5 31.625 37.0469 31.625 38.875C31.625 39.5078 32.1172 40 32.75 40C33.3125 40 33.875 39.5078 33.875 38.875C33.875 35.7812 31.3438 33.25 28.25 33.25H23.75C20.5859 33.25 18.125 35.7812 18.125 38.875C18.125 39.5078 18.6172 40 19.25 40Z" fill="#323A43"/>
</g>
<defs>
<clipPath id="clip0_1115_5743">
<rect width="52" height="52" fill="white"/>
</clipPath>
</defs>
</svg>
