<svg width="52" height="52" viewBox="0 0 52 52" fill="none" xmlns="http://www.w3.org/2000/svg">
<g clip-path="url(#clip0_1115_5745)">
<path d="M39.4297 27.6953C38.7969 27.5547 38.2344 27.9766 38.0938 28.6094C37.1797 34.5859 32.0469 38.875 25.9297 38.875C22.4141 38.875 19.1797 37.3984 16.8594 34.9375L21.0781 30.7188C21.4297 30.3672 21.5703 29.875 21.3594 29.4531C21.2188 29.0312 20.7969 28.75 20.375 28.75H11.375C10.7422 28.75 10.25 29.3125 10.25 29.875V38.875C10.25 39.3672 10.4609 39.7891 10.8828 39.9297C11.0234 40 11.1641 40 11.375 40C11.6562 40 11.9375 39.9297 12.1484 39.7188L15.3125 36.4844C18.0547 39.3672 21.8516 41.125 26 41.125C33.1016 41.125 39.2188 36.0625 40.4141 28.9609C40.4844 28.3281 40.0625 27.7656 39.4297 27.6953ZM12.5 36.2031V31H17.6328L12.5 36.2031ZM41.0469 13.1406C40.9062 13.0703 40.7656 13 40.625 13C40.2734 13 39.9922 13.1406 39.7812 13.3516L36.6172 16.5859C33.875 13.7031 30.0781 11.875 26 11.875C18.8281 11.875 12.7109 17.0078 11.5156 24.1094C11.4453 24.7422 11.8672 25.3047 12.5 25.375C13.0625 25.5156 13.625 25.0938 13.7656 24.4609C14.75 18.4844 19.8828 14.125 26 14.125C29.4453 14.125 32.75 15.6719 35 18.1328L30.7812 22.3516C30.5 22.7031 30.3594 23.1953 30.5703 23.6172C30.7109 24.0391 31.1328 24.25 31.625 24.25H40.625C41.1875 24.25 41.75 23.7578 41.75 23.125V14.125C41.75 13.7031 41.4688 13.2812 41.0469 13.1406ZM39.5 22H34.2969L39.5 16.8672V22Z" fill="#323A43"/>
</g>
<defs>
<clipPath id="clip0_1115_5745">
<rect width="52" height="52" fill="white"/>
</clipPath>
</defs>
</svg>
