<svg width="24" height="18" viewBox="0 0 24 18" fill="none" xmlns="http://www.w3.org/2000/svg">
<path d="M7.54752 18C16.6042 18 21.5578 11.0743 21.5578 5.0683C21.5578 4.87158 21.5578 4.67576 21.5434 4.48082C22.507 3.83743 23.3389 3.0408 24 2.12823C23.1014 2.49596 22.148 2.73701 21.1718 2.84331C22.1998 2.27537 22.9692 1.38197 23.3366 0.329451C22.3701 0.858902 21.3126 1.232 20.2099 1.43264C19.4675 0.703991 18.4856 0.221496 17.4162 0.0598233C16.3468 -0.10185 15.2494 0.0663123 14.294 0.538287C13.3385 1.01026 12.5782 1.75974 12.1307 2.67073C11.6833 3.58173 11.5735 4.60345 11.8186 5.5778C9.86089 5.48716 7.94576 5.01756 6.19745 4.19948C4.44915 3.38141 2.90676 2.23314 1.6704 0.82921C1.04073 1.82976 0.847872 3.0142 1.1311 4.14139C1.41433 5.26857 2.15234 6.25374 3.19488 6.89632C2.41123 6.87512 1.64465 6.67999 0.96 6.32744V6.38504C0.960311 7.43437 1.35385 8.4513 2.07387 9.26335C2.79389 10.0754 3.79606 10.6326 4.9104 10.8403C4.18548 11.0228 3.42487 11.0495 2.68704 10.9183C3.00181 11.8213 3.61443 12.611 4.43924 13.1769C5.26405 13.7428 6.25983 14.0566 7.28736 14.0746C6.26644 14.8153 5.09731 15.3629 3.84687 15.6862C2.59643 16.0094 1.28921 16.1019 0 15.9584C2.25183 17.2922 4.87192 17.9997 7.54752 17.9965" fill="white"/>
</svg>
