<?xml version="1.0" encoding="utf-8"?>
<!-- Generator: Adobe Illustrator 27.1.0, SVG Export Plug-In . SVG Version: 6.00 Build 0)  -->
<svg version="1.1" id="Layer_1" xmlns="http://www.w3.org/2000/svg" xmlns:xlink="http://www.w3.org/1999/xlink" x="0px" y="0px"
	 viewBox="0 0 1920 488.9" style="enable-background:new 0 0 1920 488.9;" xml:space="preserve">
<style type="text/css">
	.st0{fill:#213147;}
	.st1{fill:#12AAFF;}
	.st2{fill:#9DCCED;}
	.st3{fill:#FFFFFF;}
</style>
<g>
	<g>
		<path class="st0" d="M16.4,148.6v191.7c0,12.2,6.5,23.5,17.1,29.6l166,95.8c10.6,6.1,23.6,6.1,34.2,0l166-95.8
			c10.6-6.1,17.1-17.4,17.1-29.6V148.6c0-12.2-6.5-23.5-17.1-29.6l-166-95.8c-10.6-6.1-23.6-6.1-34.2,0L33.5,119
			C23,125.1,16.4,136.4,16.4,148.6z"/>
		<g>
			<g>
				<g>
					<path class="st1" d="M252.9,281.6l-23.7,64.9c-0.7,1.8-0.7,3.8,0,5.6l40.7,111.7l47.1-27.2l-56.5-155
						C259.2,278,254.2,278,252.9,281.6z"/>
				</g>
				<g>
					<path class="st1" d="M300.3,172.4c-1.3-3.6-6.3-3.6-7.6,0L269,237.3c-0.7,1.8-0.7,3.8,0,5.6l66.7,182.9l47.1-27.2L300.3,172.4z
						"/>
				</g>
			</g>
		</g>
		<path class="st2" d="M216.6,30.3c1.2,0,2.3,0.3,3.4,0.9l179.6,103.7c2.1,1.2,3.4,3.4,3.4,5.8v207.4c0,2.4-1.3,4.6-3.4,5.8
			L220,457.7c-1,0.6-2.2,0.9-3.4,0.9s-2.3-0.3-3.4-0.9L33.7,354c-2.1-1.2-3.4-3.4-3.4-5.8V140.7c0-2.4,1.3-4.6,3.4-5.8L213.3,31.2
			C214.3,30.6,215.5,30.3,216.6,30.3 M216.6,0c-6.4,0-12.8,1.7-18.5,5L18.5,108.7C7.1,115.3,0,127.5,0,140.7v207.4
			c0,13.2,7.1,25.5,18.5,32.1l179.6,103.7c5.7,3.3,12.1,5,18.5,5s12.8-1.7,18.5-5l179.6-103.7c11.5-6.6,18.5-18.8,18.5-32.1V140.7
			c0-13.2-7.1-25.5-18.5-32.1L235.2,5C229.4,1.7,223,0,216.6,0L216.6,0z"/>
		<polygon class="st0" points="97.9,426 114.4,380.8 147.6,408.4 116.6,436.8 		"/>
		<g>
			<path class="st3" d="M201.5,125.9H156c-3.4,0-6.5,2.1-7.6,5.3L50.8,398.8L97.9,426l107.5-294.7
				C206.3,128.7,204.4,125.9,201.5,125.9z"/>
			<path class="st3" d="M281.2,125.9h-45.5c-3.4,0-6.5,2.1-7.6,5.3L116.6,436.8l47.1,27.2L285,131.4
				C286,128.7,284,125.9,281.2,125.9z"/>
		</g>
	</g>
	<g>
		<g>
			<path class="st3" d="M627.1,126c4.5,0,8.4,0.9,11.5,2.8c3.1,1.9,6.2,5.5,9.2,10.9l59.4,107.8c0.6,1.2,0.7,2.2,0.4,3
				c-0.3,0.8-1.2,1.2-2.6,1.2h-22.8c-2,0-3.4-0.8-4.1-2.3l-12.7-23.1h-84.3l-12.4,23.1c-0.8,1.6-2.2,2.3-4.1,2.3h-23.3
				c-1.6,0-2.5-0.4-2.8-1.2c-0.3-0.8-0.2-1.8,0.4-3l58.9-107.8c3-5.4,5.9-9,8.8-10.9c2.9-1.9,6.2-2.8,10-2.8H627.1z M592.2,205.3
				H654l-28.5-52.6c-0.5-0.8-1.1-1.3-2-1.3h-1.1c-0.8,0-1.5,0.4-2,1.3L592.2,205.3z"/>
			<path class="st3" d="M837.7,126c13.8,0,23.6,3.1,29.6,9.3c6,6.2,9,15.4,9,27.6v10.2c0,10.3-2.1,18.4-6.3,24.4
				c-4.2,6-11,9.8-20.5,11.5l30.7,38c0.6,0.6,0.8,1.5,0.5,2.7c-0.2,1.2-1.2,1.8-2.9,1.8h-23.1c-1.6,0-2.6-0.2-3.2-0.5
				c-0.6-0.4-1.2-1-1.8-1.8l-28.4-37.3h-58v35.7c0,2.6-1.3,3.9-3.9,3.9h-19.4c-2.8,0-4.1-1.3-4.1-3.9V131.3c0-3.6,1.8-5.4,5.4-5.4
				L837.7,126L837.7,126z M763.4,190h68.7c6.1,0,10.4-1.3,12.9-3.9c2.5-2.6,3.8-6.6,3.8-12v-7.5c0-5.4-1.3-9.4-3.8-12
				c-2.5-2.6-6.8-3.9-12.9-3.9h-66.4c-1.6,0-2.3,0.7-2.3,2.2V190z"/>
			<path class="st3" d="M1026.4,126c12.3,0,21.1,2.5,26.3,7.4c5.2,4.9,7.8,12.3,7.8,22.2v8.6c0,10-3.8,17.6-11.5,22.8
				c8.2,4.8,12.4,12.5,12.4,23.1v10.4c0,4.8-0.5,9.1-1.6,12.9c-1.1,3.8-2.8,7.1-5.3,9.8c-2.5,2.7-5.7,4.8-9.8,6.2
				c-4.1,1.4-9.1,2.2-15.1,2.2H923c-3.6,0-5.4-1.8-5.4-5.4V131.3c0-3.6,1.8-5.4,5.4-5.4L1026.4,126L1026.4,126z M945.1,178.2h73.6
				c6,0,10-0.9,12.2-2.7c2.2-1.8,3.2-4.4,3.2-7.9v-6.1c0-3.7-1-6.4-3.1-8.2c-2.1-1.7-5.5-2.6-10.1-2.6h-73.4c-1.6,0-2.3,0.8-2.3,2.3
				V178.2z M945.1,197.7v26.7c0,1.6,0.8,2.3,2.3,2.3h73.6c4.8,0,8.2-0.9,10.2-2.6c2-1.7,3.1-4.5,3.1-8.3V209c0-3.7-1.1-6.5-3.3-8.4
				c-2.2-1.9-6.3-2.9-12.3-2.9L945.1,197.7L945.1,197.7z"/>
			<path class="st3" d="M1128.3,126c2.6,0,3.9,1.3,3.9,3.9v117.7c0,2.6-1.3,3.9-3.9,3.9h-19.4c-2.8,0-4.1-1.3-4.1-3.9V129.9
				c0-2.6,1.4-3.9,4.1-3.9L1128.3,126z"/>
			<path class="st3" d="M1316.3,126c2.8,0,4.1,1.3,4.1,3.9v17.6c0,2.8-1.4,4.1-4.1,4.1H1260v96c0,2.6-1.3,3.9-3.9,3.9h-19.6
				c-2.6,0-3.9-1.3-3.9-3.9v-96h-56.3c-2.8,0-4.1-1.4-4.1-4.1v-17.6c0-2.6,1.4-3.9,4.1-3.9H1316.3z"/>
			<path class="st3" d="M1458.2,126c13.8,0,23.6,3.1,29.6,9.3c6,6.2,9,15.4,9,27.6v10.2c0,10.3-2.1,18.4-6.3,24.4
				c-4.2,6-11,9.8-20.5,11.5l30.7,38c0.6,0.6,0.8,1.5,0.5,2.7c-0.2,1.2-1.2,1.8-2.9,1.8h-23.1c-1.6,0-2.6-0.2-3.2-0.5
				c-0.6-0.4-1.2-1-1.8-1.8l-28.4-37.3h-58v35.7c0,2.6-1.3,3.9-3.9,3.9h-19.4c-2.8,0-4.1-1.3-4.1-3.9V131.3c0-3.6,1.8-5.4,5.4-5.4
				L1458.2,126L1458.2,126z M1384,190h68.7c6.1,0,10.4-1.3,12.9-3.9c2.5-2.6,3.8-6.6,3.8-12v-7.5c0-5.4-1.3-9.4-3.8-12
				c-2.5-2.6-6.8-3.9-12.9-3.9h-66.4c-1.6,0-2.3,0.7-2.3,2.2L1384,190L1384,190z"/>
			<path class="st3" d="M1559.1,126c2.6,0,3.9,1.3,3.9,3.9v71.6c0,4.8,0.4,8.8,1.2,11.9c0.8,3.2,2.1,5.7,3.9,7.5
				c1.8,1.9,4.2,3.2,7.3,3.9c3.1,0.8,6.9,1.2,11.6,1.2h49.7c4.7,0,8.5-0.4,11.6-1.2c3.1-0.8,5.5-2.1,7.3-3.9
				c1.8-1.9,3.1-4.4,3.8-7.5c0.7-3.2,1.1-7.1,1.1-11.9v-71.6c0-2.6,1.3-3.9,3.9-3.9h19.6c2.6,0,3.9,1.3,3.9,3.9v74.3
				c0,8.6-0.9,15.9-2.7,22c-1.8,6-4.7,10.9-8.7,14.7c-4,3.8-9.2,6.5-15.6,8.2c-6.4,1.7-14.1,2.5-23.2,2.5h-51.7
				c-9.1,0-16.8-0.8-23.1-2.5c-6.3-1.7-11.5-4.4-15.5-8.2c-4-3.8-6.9-8.7-8.8-14.7c-1.9-6-2.8-13.4-2.8-22v-74.3
				c0-2.6,1.4-3.9,4.1-3.9H1559.1z"/>
			<path class="st3" d="M1765,126c2.6,0,4.9,0.2,6.8,0.5c1.9,0.4,3.6,1,5,2.1c1.4,1,2.7,2.4,3.9,4.1c1.1,1.7,2.3,4,3.5,6.9
				l37.3,86.1c0.5,1.1,1.3,1.6,2.5,1.6h2.2c1.2,0,2-0.5,2.5-1.6l37.3-86.1c1.2-2.9,2.4-5.2,3.5-6.9c1.1-1.7,2.4-3.1,3.9-4.1
				c1.4-1,3.1-1.7,4.9-2.1c1.9-0.4,4.1-0.5,6.7-0.5h19.2c6.2,0,10.4,1.4,12.6,4.2c2.2,2.8,3.2,7.6,3.2,14.4v103
				c0,2.6-1.4,3.9-4.1,3.9h-18.3c-2.6,0-3.9-1.3-3.9-3.9V154c0-1.2-0.5-1.8-1.4-1.8h-1.6c-1.2,0-2,0.5-2.3,1.4L1852,234
				c-1.4,3.2-2.9,6-4.4,8.2c-1.5,2.2-3.1,4-4.8,5.5c-1.7,1.4-3.7,2.5-5.9,3.1c-2.2,0.6-4.8,0.9-7.8,0.9h-8.6c-3,0-5.6-0.3-7.8-0.9
				c-2.2-0.6-4.2-1.6-5.9-3.1c-1.7-1.4-3.4-3.3-4.8-5.5c-1.5-2.2-3-4.9-4.4-8.2l-36.2-80.4c-0.4-1-1.1-1.4-2.3-1.4h-1.6
				c-1,0-1.4,0.6-1.4,1.8v93.7c0,2.6-1.3,3.9-3.9,3.9h-18.3c-2.8,0-4.1-1.3-4.1-3.9v-103c0-6.8,1.1-11.6,3.2-14.4
				c2.2-2.8,6.4-4.2,12.7-4.2H1765z"/>
		</g>
		<g>
			<g>
				<path class="st1" d="M614.5,288.7c1.6,0,2.4,0.8,2.4,2.3v10.1c0,1.6-0.8,2.3-2.4,2.3h-46c-2.8,0-5,0.2-6.8,0.7
					c-1.8,0.5-3.2,1.2-4.3,2.3c-1.1,1.1-1.8,2.6-2.3,4.5c-0.5,1.9-0.7,4.2-0.7,6.9v2.1H614c1.6,0,2.3,0.8,2.3,2.3v8.4
					c0,1.6-0.8,2.3-2.3,2.3h-59.6v27.6c0,1.6-0.8,2.3-2.3,2.3h-11.5c-1.6,0-2.4-0.8-2.4-2.3v-43.9c0-5.1,0.5-9.4,1.6-12.9
					c1.1-3.5,2.8-6.4,5.2-8.6c2.4-2.2,5.4-3.9,9.2-4.9c3.7-1,8.3-1.5,13.7-1.5H614.5z"/>
				<path class="st1" d="M699.7,288.7c5.4,0,10,0.5,13.7,1.5c3.8,1,6.9,2.7,9.2,4.9c2.4,2.2,4.1,5.1,5.1,8.6
					c1.1,3.5,1.6,7.8,1.6,12.9v18.2c0,5.1-0.5,9.4-1.6,13s-2.8,6.5-5.1,8.7c-2.4,2.2-5.4,3.8-9.2,4.8c-3.8,1-8.4,1.5-13.7,1.5h-32.8
					c-5.4,0-9.9-0.5-13.7-1.5c-3.7-1-6.8-2.6-9.2-4.8c-2.4-2.2-4.1-5.1-5.2-8.7c-1.1-3.6-1.6-7.9-1.6-13v-18.2
					c0-5.1,0.5-9.4,1.6-12.9c1.1-3.5,2.8-6.4,5.2-8.6c2.4-2.2,5.4-3.9,9.2-4.9c3.7-1,8.3-1.5,13.7-1.5H699.7z M653.5,333.7
					c0,2.8,0.2,5.1,0.7,6.9c0.5,1.9,1.2,3.4,2.3,4.5c1.1,1.1,2.5,1.9,4.3,2.3c1.8,0.5,4.1,0.7,6.8,0.7h31.5c2.8,0,5-0.2,6.8-0.7
					c1.8-0.5,3.2-1.2,4.3-2.3c1.1-1.1,1.8-2.6,2.3-4.5c0.5-1.9,0.7-4.2,0.7-6.9v-15.9c0-2.8-0.2-5.1-0.7-6.9
					c-0.5-1.9-1.2-3.4-2.3-4.5c-1.1-1.1-2.5-1.9-4.3-2.3c-1.8-0.5-4.1-0.7-6.8-0.7h-31.5c-2.8,0-5,0.2-6.8,0.7
					c-1.8,0.5-3.2,1.2-4.3,2.3c-1.1,1.1-1.8,2.6-2.3,4.5c-0.5,1.9-0.7,4.2-0.7,6.9V333.7z"/>
				<path class="st1" d="M766.8,288.7c1.6,0,2.3,0.8,2.3,2.3v42.3c0,2.8,0.2,5.2,0.7,7.1s1.2,3.4,2.3,4.5c1.1,1.1,2.5,1.9,4.3,2.3
					c1.8,0.5,4.1,0.7,6.8,0.7h29.4c2.8,0,5-0.2,6.8-0.7c1.8-0.5,3.2-1.2,4.3-2.3c1.1-1.1,1.8-2.6,2.2-4.5s0.6-4.2,0.6-7.1V291
					c0-1.6,0.8-2.3,2.3-2.3h11.6c1.6,0,2.3,0.8,2.3,2.3v43.9c0,5.1-0.5,9.4-1.6,13c-1.1,3.6-2.8,6.5-5.1,8.7s-5.4,3.8-9.2,4.8
					c-3.8,1-8.4,1.5-13.7,1.5h-30.5c-5.4,0-9.9-0.5-13.7-1.5c-3.7-1-6.8-2.6-9.2-4.8s-4.1-5.1-5.2-8.7c-1.1-3.6-1.6-7.9-1.6-13V291
					c0-1.6,0.8-2.3,2.4-2.3H766.8z"/>
				<path class="st1" d="M886.2,288.7c1.7,0,3.1,0.1,4.2,0.2c1.1,0.1,2.1,0.4,3,0.9c0.8,0.5,1.7,1.1,2.4,1.9
					c0.8,0.8,1.7,1.9,2.7,3.2l39.5,51.8c0.3,0.5,0.7,0.7,1.4,0.7h1c0.6,0,0.8-0.4,0.8-1.1V291c0-1.6,0.8-2.3,2.3-2.3h11.1
					c1.6,0,2.3,0.8,2.3,2.3v60.9c0,4.3-0.8,7.2-2.3,8.8c-1.6,1.5-4,2.3-7.2,2.3h-9.1c-1.6,0-3-0.1-4.1-0.2c-1.1-0.1-2.1-0.4-2.9-0.8
					c-0.8-0.4-1.7-1-2.5-1.9c-0.8-0.8-1.7-1.9-2.8-3.3l-39.6-51.7c-0.4-0.5-0.9-0.7-1.4-0.7h-1c-0.6,0-0.8,0.4-0.8,1.1v55.4
					c0,1.6-0.8,2.3-2.3,2.3h-11.1c-1.6,0-2.4-0.8-2.4-2.3v-60.9c0-4.3,0.8-7.2,2.3-8.8c1.6-1.5,4-2.3,7.2-2.3H886.2z"/>
				<path class="st1" d="M1034.5,288.7c5.7,0,10.6,0.6,14.7,1.7c4.1,1.2,7.5,3,10.1,5.4c2.6,2.4,4.5,5.5,5.8,9.3
					c1.2,3.8,1.9,8.3,1.9,13.4V333c0,5.2-0.6,9.6-1.9,13.4c-1.2,3.8-3.2,6.9-5.8,9.3c-2.6,2.4-6,4.2-10.1,5.4
					c-4.1,1.2-9,1.8-14.7,1.8h-49.6c-2.1,0-3.2-1.1-3.2-3.2v-67.9c0-2.1,1.1-3.2,3.2-3.2H1034.5z M997.9,346.8
					c0,0.9,0.5,1.4,1.4,1.4h34.8c3.1,0,5.7-0.3,7.8-0.8c2.1-0.6,3.8-1.5,5.1-2.8c1.3-1.3,2.2-3,2.8-5.1c0.6-2.1,0.8-4.7,0.8-7.8V320
					c0-3.1-0.3-5.7-0.8-7.8c-0.6-2.1-1.5-3.8-2.8-5.1c-1.3-1.3-3-2.2-5.1-2.8c-2.1-0.6-4.7-0.8-7.8-0.8h-34.8
					c-0.9,0-1.4,0.5-1.4,1.5V346.8z"/>
				<path class="st1" d="M1133.6,288.7c2.7,0,4.9,0.5,6.8,1.6c1.8,1.1,3.6,3.2,5.4,6.4l35.1,63.7c0.4,0.7,0.4,1.3,0.3,1.7
					c-0.2,0.5-0.7,0.7-1.5,0.7h-13.5c-1.2,0-2-0.5-2.4-1.4l-7.5-13.7h-49.8l-7.3,13.7c-0.5,0.9-1.3,1.4-2.4,1.4h-13.8
					c-0.9,0-1.5-0.2-1.6-0.7c-0.2-0.5-0.1-1,0.3-1.7l34.8-63.7c1.8-3.2,3.5-5.3,5.2-6.4c1.7-1.1,3.7-1.6,5.9-1.6H1133.6z
					 M1113.1,335.5h36.5l-16.9-31.1c-0.3-0.5-0.7-0.7-1.2-0.7h-0.6c-0.5,0-0.9,0.2-1.2,0.7L1113.1,335.5z"/>
				<path class="st1" d="M1267.5,288.7c1.6,0,2.4,0.8,2.4,2.3v10.4c0,1.6-0.8,2.4-2.4,2.4h-33.3v56.7c0,1.6-0.8,2.3-2.3,2.3h-11.6
					c-1.6,0-2.3-0.8-2.3-2.3v-56.7h-33.3c-1.6,0-2.4-0.8-2.4-2.4V291c0-1.6,0.8-2.3,2.4-2.3H1267.5z"/>
				<path class="st1" d="M1303.9,288.7c1.6,0,2.3,0.8,2.3,2.3v69.6c0,1.6-0.8,2.3-2.3,2.3h-11.5c-1.6,0-2.4-0.8-2.4-2.3V291
					c0-1.6,0.8-2.3,2.4-2.3H1303.9z"/>
				<path class="st1" d="M1392.5,288.7c5.4,0,10,0.5,13.7,1.5c3.8,1,6.9,2.7,9.2,4.9c2.4,2.2,4.1,5.1,5.1,8.6
					c1.1,3.5,1.6,7.8,1.6,12.9v18.2c0,5.1-0.5,9.4-1.6,13s-2.8,6.5-5.1,8.7c-2.4,2.2-5.4,3.8-9.2,4.8c-3.8,1-8.4,1.5-13.7,1.5h-32.8
					c-5.4,0-9.9-0.5-13.7-1.5c-3.7-1-6.8-2.6-9.2-4.8c-2.4-2.2-4.1-5.1-5.2-8.7c-1.1-3.6-1.6-7.9-1.6-13v-18.2
					c0-5.1,0.5-9.4,1.6-12.9c1.1-3.5,2.8-6.4,5.2-8.6c2.4-2.2,5.4-3.9,9.2-4.9c3.7-1,8.3-1.5,13.7-1.5H1392.5z M1346.3,333.7
					c0,2.8,0.2,5.1,0.7,6.9c0.5,1.9,1.2,3.4,2.3,4.5c1.1,1.1,2.5,1.9,4.3,2.3c1.8,0.5,4.1,0.7,6.8,0.7h31.5c2.8,0,5-0.2,6.8-0.7
					c1.8-0.5,3.2-1.2,4.3-2.3c1.1-1.1,1.8-2.6,2.3-4.5c0.5-1.9,0.7-4.2,0.7-6.9v-15.9c0-2.8-0.2-5.1-0.7-6.9
					c-0.5-1.9-1.2-3.4-2.3-4.5c-1.1-1.1-2.5-1.9-4.3-2.3c-1.8-0.5-4.1-0.7-6.8-0.7h-31.5c-2.8,0-5,0.2-6.8,0.7
					c-1.8,0.5-3.2,1.2-4.3,2.3c-1.1,1.1-1.8,2.6-2.3,4.5c-0.5,1.9-0.7,4.2-0.7,6.9V333.7z"/>
				<path class="st1" d="M1464.8,288.7c1.7,0,3.1,0.1,4.2,0.2c1.1,0.1,2.1,0.4,3,0.9c0.8,0.5,1.7,1.1,2.4,1.9
					c0.8,0.8,1.7,1.9,2.7,3.2l39.5,51.8c0.3,0.5,0.7,0.7,1.4,0.7h1c0.6,0,0.8-0.4,0.8-1.1V291c0-1.6,0.8-2.3,2.3-2.3h11.1
					c1.6,0,2.3,0.8,2.3,2.3v60.9c0,4.3-0.8,7.2-2.3,8.8c-1.6,1.5-4,2.3-7.2,2.3h-9.1c-1.6,0-3-0.1-4.1-0.2c-1.1-0.1-2.1-0.4-2.9-0.8
					c-0.8-0.4-1.7-1-2.5-1.9c-0.8-0.8-1.7-1.9-2.8-3.3l-39.6-51.7c-0.4-0.5-0.9-0.7-1.4-0.7h-1c-0.6,0-0.8,0.4-0.8,1.1v55.4
					c0,1.6-0.8,2.3-2.3,2.3h-11.1c-1.6,0-2.4-0.8-2.4-2.3v-60.9c0-4.3,0.8-7.2,2.3-8.8c1.6-1.5,4-2.3,7.2-2.3H1464.8z"/>
			</g>
		</g>
	</g>
</g>
</svg>
